# xmcd
#
# Track frame offsets:
#        150
#        26282
#        45000
#
# Disc length: 790 seconds
#
# Revision: 0
# Processed by: cddbd v1.5.1PL0 Copyright (c) Steve Scherf et al.
# Submitted via: ExactAudioCopy v0.95a5
#
DISCID=10031403
DTITLE=LOVE PSYCHEDELICO - Last Smile
DYEAR=2000
DGENRE=Rock
TTITLE0=Last Smile
TTITLE1=Moonly(single edit)
TTITLE2=Wasting
EXTD=
EXTT0=
EXTT1=
EXTT2=
PLAYORDER=
